
<global>
amp_veltrack=0
ampeg_attack=0.005
ampeg_release=0.35
</global>

<group>
group_label=PP
lpc_hicc1=42
lpc_locc1=0

<region>
end=295298
hikey=g#4
hivel=127
lokey=g4
loop_end=277018
loop_mode=loop_continuous
loop_start=99422
loop_xfade=18106
lovel=1
lpc=v9mjQfotWMJSd2tC2xMbwmJvvEEdJqbB6aCoQZnbaMFd1NBA5+DKwIp+JUERfDLBIQ8pQXy3AsH+WQBAWRGGP24gGsDyf9JA6XXKwIBIzj9XreM/cSvFP/Nl1cDe2HxA
lpc_rms=-39.87
offset=2000
pitch_keycenter=g#4
sample=SoloCello_sul_tasto_PP_G#4.opus
</region>

<region>
end=281882
hikey=g#3
hivel=127
lokey=g3
loop_end=246704
loop_mode=loop_continuous
loop_start=94905
loop_xfade=17284
lovel=1
lpc=9rNuQmkeG8P3MA5Dd850wt0b50EEad/BjBH6QT9kC8LwDMxBHsBTweqSWUHzRIjBzdYCQQlYHUHjxJbBomlCQTvXScBA1T4/bLbVPyCkksCmOtxA+zK0v2uIKcGuLvdA
lpc_rms=-36.81
offset=2102
pitch_keycenter=g#3
sample=SoloCello_sul_tasto_PP_G#3.opus
</region>

<region>
end=291488
hikey=g#2
hivel=127
lokey=g2
loop_end=264443
loop_mode=loop_continuous
loop_start=98139
loop_xfade=17873
lovel=1
lpc=TEDpQlaRicOW1T5D7vMlwkiNT0JjhWLCi1YAQZ5M3ECLMry/9SOTwHNE6EBtvfnAnEtEQLIuAEJj2x/CKDsEwKdscUHVxm5Ad261v2tcU8F5ieJAPsY6QdgUlcES2wZB
lpc_rms=-33.53
offset=1181
pitch_keycenter=g#2
sample=SoloCello_sul_tasto_PP_G#2.opus
</region>

<region>
end=559533
hikey=B6
hivel=127
lokey=f5
loop_end=286968
loop_mode=loop_continuous
loop_start=88791
loop_xfade=34308
lovel=1
lpc=Ii4KQZlMlcH5oZBBo2dHwYPPwEDz/Oq/cF0iQMiLHcC9r5U/ZZbwv2rkEUAuCrG/jX+nPjA6vj6yk2a/mjq+Pnf6Cb+6+e4+kjfzPP6S477jlno/AO+VvYlPRL+jaoU+
lpc_rms=-50.44
offset=10364
pitch_keycenter=F#5
sample=SoloCello_sul_tasto_PP_F#5.opus
</region>

<region>
end=365819
hikey=f#4
hivel=127
lokey=f4
loop_end=287929
loop_mode=loop_continuous
loop_start=123166
loop_xfade=22430
lovel=1
lpc=3E0kQdjrwcGeS8NBx7iHwRoDTEE+5jTB7CYcQQqny8DBGU5AldkvwPAZm0AtW83AfBt7QDzuP799u9O9pi7ePjdCwr/iJxxAoCfjv/BB0b5nt7E/EqsLP8xT7b9pWIU/
lpc_rms=-47.70
offset=12804
pitch_keycenter=f#4
sample=SoloCello_sul_tasto_PP_F#4.opus
</region>

<region>
end=290466
hikey=f#3
hivel=127
lokey=f3
loop_end=260410
loop_mode=loop_continuous
loop_start=97795
loop_xfade=17810
lovel=1
lpc=aUGBQr2oHcPzhgBDhOo2wsr02UFYntvB+Nq0QYY91MEIY5tBBSAswfL3iUE1ZKjB2lURQREMPUHjXaHBHD8GQZIggsBSokhBqTkjwWT6t0CNskbAXMn+P146C8EfpM5A
lpc_rms=-36.34
offset=251
pitch_keycenter=f#3
sample=SoloCello_sul_tasto_PP_F#3.opus
</region>

<region>
end=304345
hikey=f#2
hivel=127
lokey=f2
loop_end=277027
loop_mode=loop_continuous
loop_start=102468
loop_xfade=18661
lovel=1
lpc=y1wUQ0jyrsMFv3RDws5awq9UiEI1bpnCElA6Qd0lBUEpLSHAm4WewP14eUHwqizBtIKawBl0EUIPVAnCJJrUv5SkokD3gwdByVj8v2dOMMEcnBJAaym/Qd5LGcIXWZpB
lpc_rms=-32.67
offset=2677
pitch_keycenter=f#2
sample=SoloCello_sul_tasto_PP_F#2.opus
</region>

<region>
end=285653
hikey=e5
hivel=127
lokey=d#5
loop_end=272622
loop_mode=loop_continuous
loop_start=96175
loop_xfade=17515
lovel=1
lpc=bfjmQYECj8KyEJ1CzuZowtwiF0Iu/JXB/ABLQctHWcF+b/JAs6aGvpADlsAzSBdB0R7BwO2mfUD2gLLA916yQNDwqMBdFmhAJ00+wL4r9UDDctvA8rWeQCAlwMAm24hA
lpc_rms=-39.96
offset=533
pitch_keycenter=e5
sample=SoloCello_sul_tasto_PP_E5.opus
</region>

<region>
end=367955
hikey=e4
hivel=127
lokey=d#4
loop_end=295770
loop_mode=loop_continuous
loop_start=123885
loop_xfade=22561
lovel=1
lpc=2de3QZcTccIannpCy/sZwnnmvUFnsJHBRyRoQXWINcGtrMhA2GQ9wPh2yEAW4wvBamhbQFRbWUDNx7nAWQjUQLYf+8Dot9RAn9VEwAAApz6Hvr8/3W93Pi/AD8A9LV4/
lpc_rms=-43.78
offset=6822
pitch_keycenter=e4
sample=SoloCello_sul_tasto_PP_E4.opus
</region>

<region>
end=313034
hikey=e3
hivel=127
lokey=d#3
loop_end=279002
loop_mode=loop_continuous
loop_start=105394
loop_xfade=19194
lovel=1
lpc=vyhnQgKhEcPjtwRDb6uCwhcvHUIrUwLCQ3HMQXtCtcHRtpZBUIOVwYh5wEHDZtDBj5KSQS1SqkDhOMrBYdGcQc6tGsEini5BMAf+wESixECdUi3Bc0CEQTAaocGn4h5B
lpc_rms=-34.64
offset=828
pitch_keycenter=e3
sample=SoloCello_sul_tasto_PP_E3.opus
</region>

<region>
end=299562
hikey=e2
hivel=127
lokey=d#2
loop_end=252445
loop_mode=loop_continuous
loop_start=100858
loop_xfade=18368
lovel=1
lpc=9KW/Qlx7XcO4kB5DP5NAwoqMUkJCCE3CVFcAQfExGUHAqoXAOj7YwITG60DAY5K+Ozb0wJ5OD0KQAR3C01SFQO7wk0BCURRBzF2OP+GmZMG0cXk+PYldQbe/TMFBWKlA
lpc_rms=-34.68
offset=2352
pitch_keycenter=e2
sample=SoloCello_sul_tasto_PP_E2.opus
</region>

<region>
end=370474
hikey=d5
hivel=127
lokey=c#5
loop_end=290771
loop_mode=loop_continuous
loop_start=124733
loop_xfade=22716
lovel=1
lpc=+vLhQMcMgsGd64RB1zE+wS19AUGyL43AR3A9QABMccClqm1ASlnjvzMvrT6C3aG9mgBOv3aCB0Bv7gDATQbnP2/VAsCT5KM/PU9FPm3KS792Otk/F8UKwBcOjD8meAO9
lpc_rms=-49.54
offset=16004
pitch_keycenter=d5
sample=SoloCello_sul_tasto_PP_D5.opus
</region>

<region>
end=371717
hikey=d4
hivel=127
lokey=c#4
loop_end=301714
loop_mode=loop_continuous
loop_start=125151
loop_xfade=22792
lovel=1
lpc=wcwzQXMB08FlKMVBaaVqwXnrI0GtlwTBBHvPQKYYrcA5bnBAo5vtvxJfYD+BwhrA+SI3QAB80z8d05bAM287QAPIyL9xS7k/UC60v/XpDEBiC9+/1vvnP8SgEMBOrm4/
lpc_rms=-49.42
offset=3010
pitch_keycenter=d4
sample=SoloCello_sul_tasto_PP_D4.opus
</region>

<region>
end=362586
hikey=d3
hivel=127
lokey=c#3
loop_end=263345
loop_mode=loop_continuous
loop_start=122077
loop_xfade=22232
lovel=1
lpc=bGQQQkDDqsJFMYhCgF7ZwX9nmkGWl07BZUfvP4Ifwb/vTz6+uusmQH8IikCQWRvBysDmP91eL0FPsmzBfm7mQIM9Vr63h4Q/67LfPoCUU8A8YjBA9F6sv+VAPD8xtv++
lpc_rms=-41.83
offset=295
pitch_keycenter=d3
sample=SoloCello_sul_tasto_PP_D3.opus
</region>

<region>
end=349747
hikey=d2
hivel=127
lokey=c#2
loop_end=294736
loop_mode=loop_continuous
loop_start=117754
loop_xfade=21445
lovel=1
lpc=WGw4Qiubw8IsvGZCVkIfwcvAqEHyAbDBQ+RxQDgnbD/7ros+thBbwJ4xk0BqElrAJV1rv5kpSEFt4zvBf/hfOzqaMD6txotAhnwtPxHthsCI1lG/k86lQIoRlMBmQ+I/
lpc_rms=-43.24
offset=2517
pitch_keycenter=d2
sample=SoloCello_sul_tasto_PP_D2.opus
</region>

<region>
end=373856
hikey=c5
hivel=127
lokey=b4
loop_end=289808
loop_mode=loop_continuous
loop_start=125871
loop_xfade=22923
lovel=1
lpc=f3z9QBWrj8GrCpFB485fweaRJkEhO7vAKdlCQJWNLMAyoLw/iMkiPzYmNr/Jbk0+1vHPvs8gAz+W6tq+4f/eP6UcQcAQ4QtAcueyvxrV5D85C+2/FPKUP3CEkb7NM0Q9
lpc_rms=-50.10
offset=20127
pitch_keycenter=c5
sample=SoloCello_sul_tasto_PP_C5.opus
</region>

<region>
end=373465
hikey=c4
hivel=127
lokey=b3
loop_end=292844
loop_mode=loop_continuous
loop_start=125740
loop_xfade=22899
lovel=1
lpc=wY+5QXxyYMLvUk9CMBjzwf0UtkEk75fBhaN1QWw0QcEFfPVAZjvQwJF6vUAgncvAf3psQEsbtUBelxzBcS7IQGJJfMAFKjRA3O/5vteCfz/+wyLAQdNSQI1biMDJZBhA
lpc_rms=-43.22
offset=11881
pitch_keycenter=c4
sample=SoloCello_sul_tasto_PP_C4.opus
</region>

<region>
end=353749
hikey=c3
hivel=127
lokey=b2
loop_end=269704
loop_mode=loop_continuous
loop_start=119102
loop_xfade=21690
lovel=1
lpc=gD0jQmR+xsKnealCD+QiwkKR90Fs4b3BCpjvQJqkib9nl0s/obG/v6G49UA9/UjBWyHUQBE1E0EM8mjBAr2xQIJ4PcAtN81AvPBSwPljAcDwzqM/271FQHQfqcCPayFA
lpc_rms=-40.89
offset=1738
pitch_keycenter=c3
sample=SoloCello_sul_tasto_PP_C3.opus
</region>

<region>
end=334907
hivel=127
key=c2
loop_end=282230
loop_mode=loop_continuous
loop_start=112758
loop_xfade=20535
lovel=1
lpc=bg6GQmNdEsMAybVCozevwS2SCkJ1/u/BJTykQPdAzD/KqsW/eXLRwBjPHEElsqfAsfqNPm4RlkHhbLrBXEPRQMgTTsBJSthA3i6jv5d2o8C+EmZApyGSQLrDJcEvfrJA
lpc_rms=-39.96
offset=6741
sample=SoloCello_sul_tasto_PP_C2.opus
</region>

<region>
end=371266
hikey=a#4
hivel=127
lokey=a4
loop_end=290661
loop_mode=loop_continuous
loop_start=124999
loop_xfade=22764
lovel=1
lpc=R5LRQChRb8G1iXJBEVYwwT/UDUFM6vHAMITDQJMjjsDzSBZAoH2xvyEryj9criW/qcyyvgYCTj0CoL+7iTgXP5UkPb+IXew+FKmBvqkFdr0D2Es/0h65vbC8hL/cTSo/
lpc_rms=-49.45
offset=11127
pitch_keycenter=a#4
sample=SoloCello_sul_tasto_PP_A#4.opus
</region>

<region>
end=359284
hikey=a#3
hivel=127
lokey=a3
loop_end=281735
loop_mode=loop_continuous
loop_start=120965
loop_xfade=22030
lovel=1
lpc=vIsoQui2ysLmYq9C/KUfwtC/yEHxX7DB8kBrQbmrQsE/rg5BZy9fwAZr7UC1k3fBKf//QGDkvEAR9VHBOzUmQXxrAcCE50bANd0JQSQ72cAeuArARrSWQDuBUcC7cuc/
lpc_rms=-40.87
offset=1271
pitch_keycenter=a#3
sample=SoloCello_sul_tasto_PP_A#3.opus
</region>

<region>
end=352249
hikey=a#2
hivel=127
lokey=a2
loop_end=271554
loop_mode=loop_continuous
loop_start=118597
loop_xfade=21598
lovel=1
lpc=if6kQheAPcNlJP9CdYu3wcsdz0HdX/nBXQxHQJVlr0A0v7Y/jiFVwY/hb0GeTbXAsJNDQN+1PEHNX5HBk5uPv84/vkDBIrBA/x9cwPBXtcAFBDpAPabpQE81P8H6x7dA
lpc_rms=-38.23
offset=1855
pitch_keycenter=a#2
sample=SoloCello_sul_tasto_PP_A#2.opus
</region>
</group>

<group>
group_label=MF
lpc_hicc1=84
lpc_locc1=43

<region>
end=301287
hikey=g#4
hivel=127
lokey=g4
loop_end=286929
loop_mode=loop_continuous
loop_start=101439
loop_xfade=18473
lovel=1
lpc=tXwAQgwgncJkbphCp0NRwkD4L0JGrxzC5cT6QdOomMFpYuVAS6RyQMXOuMB6oBDAT7HXvueZwECmLf6/sMSXwPwiIkFUD5zAcwpfwEhNpUA1P4jAB4CFQDIPw8BCgXtA
lpc_rms=-32.81
offset=3698
pitch_keycenter=g#4
sample=SoloCello_sul_tasto_MF_G#4.opus
</region>

<region>
end=303885
hikey=g#3
hivel=127
lokey=g3
loop_end=286357
loop_mode=loop_continuous
loop_start=102313
loop_xfade=18633
lovel=1
lpc=txQCQpGwpcKoj59C2ls/wot1FkIFkgbCyX/PQQT5msEHC0hBWlsZwXXoMUHFq0LBIq3yQMfq6UA5DKDBx5hwQdv8pMC9zd5AAHglwdu11UAnpTfAdNbQQCc1LcE1dKtA
lpc_rms=-32.67
offset=268
pitch_keycenter=g#3
sample=SoloCello_sul_tasto_MF_G#3.opus
</region>

<region>
end=300573
hikey=g#2
hivel=127
lokey=g2
loop_end=273757
loop_mode=loop_continuous
loop_start=101198
loop_xfade=18430
lovel=1
lpc=K7KOQii5NMMcihxDk0KTwty3ckIanUDCR6rsQTuMA8L83qVBOzs7wYRmlkFhH5vBkuQoQcangkEX2gXCo4mRQWF1osDPHthA3egFwQDt40DyLVvALWUwQLM7r8DJREZA
lpc_rms=-28.91
offset=3496
pitch_keycenter=g#2
sample=SoloCello_sul_tasto_MF_G#2.opus
</region>

<region>
end=386477
hikey=B6
hivel=127
lokey=f5
loop_end=288533
loop_mode=loop_continuous
loop_start=130121
loop_xfade=23697
lovel=1
lpc=zzlNQaWy08Hb0spBHjuZwUtwckHVVjnBRZUMQWocdMBWefI/FUUqwCb0cUCDZCbAU1bRv7n/rkCFWo/AqbdiQJMkhMBBTaFAcnRpwNkFOUCxfpfAFPXSQFHMXsCcglQ/
lpc_rms=-42.84
offset=2855
pitch_keycenter=F#5
sample=SoloCello_sul_tasto_MF_F#5.opus
</region>

<region>
end=307295
hikey=f#4
hivel=127
lokey=f4
loop_end=288204
loop_mode=loop_continuous
loop_start=103461
loop_xfade=18842
lovel=1
lpc=Alw4QRIT4sE3m+RBh46cwcXUgUFhsW/Bx/0vQf8IxsDedyNACzcEPuG88L4Rhhy/07K+v9jLq0AFhb3A1spjQLE7C8D8wjdAPm0MwDLVsT88bjPAdztAQFZXe785ux29
lpc_rms=-40.53
offset=3655
pitch_keycenter=f#4
sample=SoloCello_sul_tasto_MF_F#4.opus
</region>

<region>
end=299392
hikey=f#3
hivel=127
lokey=f3
loop_end=278806
loop_mode=loop_continuous
loop_start=100801
loop_xfade=18357
lovel=1
lpc=A9UgQlg+wsLTratCn6g3wtQXFEKvrf/BoJGcQUmUV8E68BdB/ysSwfyiNUGaEzHB3dRjQBJYP0G3IqTBPJsmQTApUD9FLmZArQr0wCjqg0DTk+G/GFCcQPHDA8HIJIdA
lpc_rms=-31.21
offset=766
pitch_keycenter=f#3
sample=SoloCello_sul_tasto_MF_F#3.opus
</region>

<region>
end=294893
hikey=f#2
hivel=127
lokey=f2
loop_end=270731
loop_mode=loop_continuous
loop_start=99286
loop_xfade=18081
lovel=1
lpc=5p4RQ8V0u8P9dqJDEWsMw/kH/kIstQPDGiOEQhR048HuVXdBi+urwY96A0IdE8rBItRJQRw3B0LrSHHCh4mbQe4hqECwtERB4R7NwczzW0G0WbtAw13wQLprB8KH5J9B
lpc_rms=-25.21
offset=2421
pitch_keycenter=f#2
sample=SoloCello_sul_tasto_MF_F#2.opus
</region>

<region>
end=321226
hikey=e5
hivel=127
lokey=d#5
loop_end=282220
loop_mode=loop_continuous
loop_start=108152
loop_xfade=19696
lovel=1
lpc=rC+6QU8/V8LLx19Ck3gownTeDEJIQ+3BBKe5QZXmesG2egVBTymwv7TPwr8+58U/0LpQwPx170AL2AHBLj3dQIYz+cAuYFFBP0hqwSIAbEFYmXjB/OpeQTjBD8HZ3YVA
lpc_rms=-36.45
offset=1028
pitch_keycenter=e5
sample=SoloCello_sul_tasto_MF_E5.opus
</region>

<region>
end=345944
hikey=e4
hivel=127
lokey=d#4
loop_end=288300
loop_mode=loop_continuous
loop_start=116474
loop_xfade=21212
lovel=1
lpc=e9CMQUHPL8LLLDBCG7XmwUq0rEHQW4zBNcBFQfzEAcF6+rhABw+uwFR0yED5p97At2wuQN3O1UCvgSrBvETeQBzGh8DUippAHDFtwNq+nD8M3ce+Bb2KPx5yfr9/yEI+
lpc_rms=-38.32
offset=1593
pitch_keycenter=e4
sample=SoloCello_sul_tasto_MF_E4.opus
</region>

<region>
end=294920
hikey=e3
hivel=127
lokey=d#3
loop_end=277094
loop_mode=loop_continuous
loop_start=99295
loop_xfade=18083
lovel=1
lpc=/uRDQv1a+MLDKOFCfVZuwnnHQUJlACnCkavwQfBjzcEzJ5RBpNiDwTCQpEGp+bTBOKiJQQU7okAgprjBu9ppQRRWP8C+0jxAc8ArPsbXx7+vm0/AsW7YQDsTCsGR75BA
lpc_rms=-29.39
offset=1725
pitch_keycenter=e3
sample=SoloCello_sul_tasto_MF_E3.opus
</region>

<region>
end=300575
hikey=e2
hivel=127
lokey=d#2
loop_end=276122
loop_mode=loop_continuous
loop_start=101199
loop_xfade=18430
lovel=1
lpc=qXi3QjHjWMOvZCBDuC9iwtitg0KRDoXCbUPgQUAFksDzpsu/HnFVwZuonEHgd1zBZFZDQWSPZEG8T+TB8pHnQGyuhr/4DBdB4IcmwY9GzkB7D5o/4l4zQGVAdcHKxhlB
lpc_rms=-30.55
offset=2602
pitch_keycenter=e2
sample=SoloCello_sul_tasto_MF_E2.opus
</region>

<region>
end=357412
hikey=d5
hivel=127
lokey=c#5
loop_end=289300
loop_mode=loop_continuous
loop_start=120335
loop_xfade=21915
lovel=1
lpc=3iAnQWMXssEzdKhBvRBswWJEK0HUuP7AZkHlQBq9zcB/7n5AU4ORPrrfuL+sK0O/PPF1Pc5xuT9RC1O/NkoHP0kjWT6RZbo9EFGLvtZaLD+nkb2/dW49PxuFaz8gYMy+
lpc_rms=-42.99
offset=1038
pitch_keycenter=d5
sample=SoloCello_sul_tasto_MF_D5.opus
</region>

<region>
end=349804
hikey=d4
hivel=127
lokey=c#4
loop_end=287862
loop_mode=loop_continuous
loop_start=117774
loop_xfade=21448
lovel=1
lpc=pO1gQVAvCMIM8QhCbfWxwWgdgEH+x0zB3OUBQfpwp8B4JIRAM99ZwJQpkkD84sLAtA5oQI8LZ0BAgRDBWHLxQGMmiMDzYphAH7Z1wIZlsj9le4e/OclZP1JeAT8rUAC/
lpc_rms=-42.73
offset=5897
pitch_keycenter=d4
sample=SoloCello_sul_tasto_MF_D4.opus
</region>

<region>
end=307141
hikey=d3
hivel=127
lokey=c#3
loop_end=285508
loop_mode=loop_continuous
loop_start=103410
loop_xfade=18832
lovel=1
lpc=LWP9QX83mcLC4n1CxdTfwXMnqUEol4fB9olMQdjPQMH4Wn1A7xxqwG6VH0H3JAjB7LREQDflt0AvG0PBkyQPQUPIh8A34htA8CsGwJr5VkBUc9+/WR7Zv8RyPEBBuMm/
lpc_rms=-36.45
offset=1256
pitch_keycenter=d3
sample=SoloCello_sul_tasto_MF_D3.opus
</region>

<region>
end=305483
hikey=d2
hivel=127
lokey=c#2
loop_end=276082
loop_mode=loop_continuous
loop_start=102851
loop_xfade=18731
lovel=1
lpc=kWMQQgfaqMJZWoFCL7HPwTL01EEpCcfB6CcXQRDIkL/s1j4/AZyCwN7ZLUA8Ej/AnZShQPaMmECadxbBnngxQPTXAsBy2o9ADU1mwDLX4T7c4BZABJWvPL66T8BQ9+M/
lpc_rms=-37.51
offset=255
pitch_keycenter=d2
sample=SoloCello_sul_tasto_MF_D2.opus
</region>

<region>
end=296277
hikey=c5
hivel=127
lokey=b4
loop_end=280377
loop_mode=loop_continuous
loop_start=99752
loop_xfade=18166
lovel=1
lpc=QnEXQVTxpcGE+JZBC/dOwfPBKUEAzezAghWuQHHGqcAnd2pAsVvVvwUb/D/3KhbAG5DoPkVW2j/ru9e/P6JdPypTDb/JOJY/6JLgv8c9uj+vkx6/AguEP1AL0L/ajoM/
lpc_rms=-41.97
offset=1152
pitch_keycenter=c5
sample=SoloCello_sul_tasto_MF_C5.opus
</region>

<region>
end=322796
hikey=c4
hivel=127
lokey=b3
loop_end=294801
loop_mode=loop_continuous
loop_start=108680
loop_xfade=19792
lovel=1
lpc=MXarQbdSUMLYKEZCP5z7waO9ykHzcbHBFT1sQSLnB8H1HdlAHoEDwYNcFUE9cATBuU1zQCJKrUC2KjbB/bUXQeay8MCmvhtB8u0Hwc0PikBsq0TAmYIVQLwZKsAK1/E/
lpc_rms=-38.25
offset=2971
pitch_keycenter=c4
sample=SoloCello_sul_tasto_MF_C4.opus
</region>

<region>
end=299876
hikey=c3
hivel=127
lokey=b2
loop_end=266421
loop_mode=loop_continuous
loop_start=100963
loop_xfade=18387
lovel=1
lpc=57ECQsasm8JPIIBC0MXqwZ63v0Epc53Bj74wQZeYM8FHBhRBYLzQwGh9FkEbZCzBUuvbQB/qMECtOSvBmT8TQZtfR8C+Rw9AiIM+wL4g5D/mzBnAM4/IP2PJEr6XymQ9
lpc_rms=-36.18
offset=4952
pitch_keycenter=c3
sample=SoloCello_sul_tasto_MF_C3.opus
</region>

<region>
end=307154
hivel=127
key=c2
loop_end=275568
loop_mode=loop_continuous
loop_start=103414
loop_xfade=18833
lovel=1
lpc=k3pPQqs68MKjgadC4b27wRWO/EFqMgvClHFZQWXLrr+hNVzAAUQYwLWR2kClgsq/c5ydvvC/FkFepl7BJfwWQJ7T3D2g1PBATm8JwY8WmkAjO6W/wbEGQDmS3MAM+JBA
lpc_rms=-32.99
offset=3177
sample=SoloCello_sul_tasto_MF_C2.opus
</region>

<region>
end=334729
hikey=a#4
hivel=127
lokey=a4
loop_end=278708
loop_mode=loop_continuous
loop_start=112698
loop_xfade=20524
lovel=1
lpc=CZarQP1eNcFVlylBzPjdwCoFrkCBB5TAziA6QKZgtL+pyas9lWVgP1yOab4hwJK9Yl5Pv7E0hj9f5Pu+JGL2vZQmpT64YcS+MgcWP2s0h76ECja7ILudPU5YN7w4Dfc9
lpc_rms=-48.76
offset=1640
pitch_keycenter=a#4
sample=SoloCello_sul_tasto_MF_A#4.opus
</region>

<region>
end=231120
hikey=a#3
hivel=127
lokey=a3
loop_end=163276
loop_mode=loop_continuous
loop_start=58289
loop_xfade=14171
lovel=1
lpc=xJCdQRqFLsIsAgpCs+99wUYFUUEfRD3BLPzyQFLVycB4PoNAtZLov8qboT+/pjnAsr4kQKyK8j8jDYPAaUBoP16xyT/boFm/576KP0VVsr+hu3g8EsGgP0SrCr8gD2U8
lpc_rms=-36.55
offset=5303
pitch_keycenter=a#3
sample=SoloCello_sul_tasto_MF_A#3.opus
</region>

<region>
end=305486
hikey=a#2
hivel=127
lokey=a2
loop_end=281075
loop_mode=loop_continuous
loop_start=102852
loop_xfade=18731
lovel=1
lpc=bvdjQmI6CcMzpdtCam45worZLkJbmBrCm6+pQY78q8G7eylB3rziv7vhdEHXa4zBiXLwP107REE/lF3B1YfbQHwNjsAgW4lAejodPs+ICUA5ab3AaY2SvpKfXEDjSFq/
lpc_rms=-31.81
offset=3145
pitch_keycenter=a#2
sample=SoloCello_sul_tasto_MF_A#2.opus
</region>
</group>

<group>
group_label=FF
lpc_hicc1=127
lpc_locc1=85

<region>
end=309857
hikey=g#4
hivel=127
lokey=g4
loop_end=274539
loop_mode=loop_continuous
loop_start=104324
loop_xfade=18999
lovel=1
lpc=DFXwQdsjlMI4xZFCw7lBwiOfDkLQKc7BQqCBQamnNsEX5D5BBQpawaJTXkH624HBhnB8Qf1ZA8Cj40LBGdtnQdIsD8Ef96pAwl+BwIgsKEDxFYnApLG3QAxUzsBQW3xA
lpc_rms=-25.78
offset=2815
pitch_keycenter=g#4
sample=SoloCello_sul_tasto_FF_G#4.opus
</region>

<region>
end=293285
hikey=g#3
hivel=127
lokey=g3
loop_end=279026
loop_mode=loop_continuous
loop_start=98744
loop_xfade=17983
lovel=1
lpc=J1ULQmbpp8LhMpBCi7QLwqrs4UEVWPXBs23AQUQ6g8G0zDpBjXMSwdGSKkEplFXBrJjQQA40MkHo9ZvBRJApQXKqMMCT3QhBnpFPwTXZv0Bie3C/sQTZP7hJPMBCfOs/
lpc_rms=-22.48
offset=4258
pitch_keycenter=g#3
sample=SoloCello_sul_tasto_FF_G#3.opus
</region>

<region>
end=299535
hikey=g#2
hivel=127
lokey=g2
loop_end=285748
loop_mode=loop_continuous
loop_start=100849
loop_xfade=18366
lovel=1
lpc=AKfBQua7U8PJTutCs+D+wEWrSkK3inLCxjCDQTkCNsG7QZFBiPpqwUkWK0GGXkLBho4cQQ+x/0DPlgfBlHoAwa57DUBxwVBBOErcwMIXvMC2mzlAVZP/QBYBCMGxTQtA
lpc_rms=-21.43
offset=1596
pitch_keycenter=g#2
sample=SoloCello_sul_tasto_FF_G#2.opus
</region>

<region>
end=488165
hikey=B6
hivel=127
lokey=f5
loop_end=282899
loop_mode=loop_continuous
loop_start=77698
loop_xfade=29932
lovel=1
lpc=nw8mQW5pocFE7ZRBFfhOwY9mKkGjrgDBZNiwQJa3UcAZflBAMn4KwOXZxT8vAJS/3blBvZ2pI0CV0DHAOrteQO12d8CIKo9AUYxYwGSxOEB7LD7An+0+QGj5ub/5/ps/
lpc_rms=-35.00
offset=3493
pitch_keycenter=F#5
sample=SoloCello_sul_tasto_FF_F#5.opus
</region>

<region>
end=309660
hikey=f#4
hivel=127
lokey=f4
loop_end=293567
loop_mode=loop_continuous
loop_start=104258
loop_xfade=18987
lovel=1
lpc=mOlrQV57CcJ6Z/xB/NuYwZdKZkHEmzzBCcoQQbU/2cAAaZtAjiORwA6rwEANed7AJV9kQJ9zWUCK+6zA9elaQNDUYcA5fJlArZdjwJsj9D9jg2HAAZCTQMi4EsAOqaQ+
lpc_rms=-33.44
offset=3506
pitch_keycenter=f#4
sample=SoloCello_sul_tasto_FF_F#4.opus
</region>

<region>
end=304095
hikey=f#3
hivel=127
lokey=f3
loop_end=279008
loop_mode=loop_continuous
loop_start=102384
loop_xfade=18646
lovel=1
lpc=wtEBQk19mMKuj3pCE9vxwV7g1UG2x9bBH+mPQVWqEMH9Iq9AB4gKwVuCRkGKAlbBW6PiQIoHCEHGTGvB1c7QQJdcGsA9xA9BQ+APwf+BzT6Y5zI/Ul4HQKovdsA6PyRA
lpc_rms=-23.98
offset=2881
pitch_keycenter=f#3
sample=SoloCello_sul_tasto_FF_F#3.opus
</region>

<region>
end=294338
hikey=f#2
hivel=127
lokey=f2
loop_end=272524
loop_mode=loop_continuous
loop_start=99099
loop_xfade=18047
lovel=1
lpc=3F3fQkHvc8MkSg9DkOy6wWAXV0J5v1DCLsR2QVBLcMEjjDhBOV0lwbT7jEGVPDbBX2wKPBcnokFqkJXB2LkxwFKCPL+6EYRBdZ5AwQjfTr+h8FrAsYNuQQzFu8GWlFlB
lpc_rms=-20.98
offset=2315
pitch_keycenter=f#2
sample=SoloCello_sul_tasto_FF_F#2.opus
</region>

<region>
end=338368
hikey=e5
hivel=127
lokey=d#5
loop_end=289737
loop_mode=loop_continuous
loop_start=113923
loop_xfade=20747
lovel=1
lpc=j/CJQYPKGcKXHRtCLp/Uwe62mkF7PnTBWO1FQY4PGsHsbtFAjSoOwIboeL7DpAy/pDJKQEl/nrwk6KTAo5f5QJwbCsF1hAlBiDqewJmmMkAjL6HAbUMNQYcp6sAQb1lA
lpc_rms=-28.80
offset=1111
pitch_keycenter=e5
sample=SoloCello_sul_tasto_FF_E5.opus
</region>

<region>
end=332916
hikey=e4
hivel=127
lokey=d#4
loop_end=297311
loop_mode=loop_continuous
loop_start=112088
loop_xfade=20413
lovel=1
lpc=hi2cQSZePMIWeSxCvKC7wcBJiUGl44LBaUA+Qd9w5sBnWZpAcGa9wChTAkGC3wPBs4FxQJ0xvkDB6RTBFFCQQOpeY8DrX89ARM+SwLiD2b4wpZA/SHcgQPm5ZcAyzZc/
lpc_rms=-29.55
offset=2782
pitch_keycenter=e4
sample=SoloCello_sul_tasto_FF_E4.opus
</region>

<region>
end=302185
hikey=e3
hivel=127
lokey=d#3
loop_end=289101
loop_mode=loop_continuous
loop_start=101741
loop_xfade=18529
lovel=1
lpc=NK+OQkXAJsN+YfFC88rrwfBM1kG0cRXCF2eoQZzAMsF/d/dA8/1WwX0Y3EH2c9/BRArmQPvBjUGE/p/B8QugQFWdZcB5P1RBeOcwwQZPnkCsGt3AsIwYQQw2KsErpbpA
lpc_rms=-22.34
offset=1103
pitch_keycenter=e3
sample=SoloCello_sul_tasto_FF_E3.opus
</region>

<region>
end=297296
hikey=e2
hivel=127
lokey=d#2
loop_end=279827
loop_mode=loop_continuous
loop_start=100095
loop_xfade=18229
lovel=1
lpc=rsSNQpX/DcPXHm9CzW7sQJj5FkIaZiXCYHj8QFGTEMGvyz9BEKm8wPRQh0Bo18nAXhOeQPgdIEEjkAfBBjjxwE5Ebj8rKzlBTYOmwIjXCb9fIZy/dSknQNakDsGlLdpA
lpc_rms=-23.37
offset=3989
pitch_keycenter=e2
sample=SoloCello_sul_tasto_FF_E2.opus
</region>

<region>
end=355021
hikey=d5
hivel=127
lokey=c#5
loop_end=278093
loop_mode=loop_continuous
loop_start=119530
loop_xfade=21768
lovel=1
lpc=YaOQQQEpD8J62wNCuyS6wfGTj0GpnF/BnNIrQSxC0MCC6YlAq1O7wK/J8UCxfcHAxjDovt29z0AJ6c3A4ACUQK4WdcCXI55A90YzwJ2TlD8Vqg/ApRyMQJweFMBWyFY/
lpc_rms=-31.54
offset=322
pitch_keycenter=d5
sample=SoloCello_sul_tasto_FF_D5.opus
</region>

<region>
end=343705
hikey=d4
hivel=127
lokey=c#4
loop_end=282291
loop_mode=loop_continuous
loop_start=115720
loop_xfade=21074
lovel=1
lpc=x25zQUUdBcIp499BKeGAwTn/X0HloU3Bru/9QKezosAUapNAcTV5wCCJtEBm++fANX5EQNl5gkAt/r7AvFmBQCrraMAdHIBAC5kYwJQC5j5J2Fq+ymSbP2BqIr/jMF6+
lpc_rms=-32.13
offset=953
pitch_keycenter=d4
sample=SoloCello_sul_tasto_FF_D4.opus
</region>

<region>
end=304961
hikey=d3
hivel=127
lokey=c#3
loop_end=283317
loop_mode=loop_continuous
loop_start=102676
loop_xfade=18699
lovel=1
lpc=LtcZQkmlrMIJ/WBCNv0awZg6ZEHwvpjBLnzNQHVe87+/loZAnAHowAXJIUG1uxfB8kEwQAul3EDGRc/ApRipvv8MTL7i1qVAP9m4vwX1N8AVEpC/kipQQMWMQcBkU8w/
lpc_rms=-28.21
offset=1275
pitch_keycenter=d3
sample=SoloCello_sul_tasto_FF_D3.opus
</region>

<region>
end=308880
hikey=d2
hivel=127
lokey=c#2
loop_end=293051
loop_mode=loop_continuous
loop_start=103995
loop_xfade=18939
lovel=1
lpc=LJ0QQtC7kcKpbvxBlutvQJH1qEEnHMHBciFGQBpBGcACAaFA8G1HwBs3hUCxx4/ApEQ0QArRaUBj5U/AxpyUwJVnDkA/74lACrsLwASFQb9bnT4/eMnMPol0csBr9jpA
lpc_rms=-28.53
offset=2670
pitch_keycenter=d2
sample=SoloCello_sul_tasto_FF_D2.opus
</region>

<region>
end=297817
hikey=c5
hivel=127
lokey=b4
loop_end=284486
loop_mode=loop_continuous
loop_start=100270
loop_xfade=18261
lovel=1
lpc=ufAzQYv+yMFCO7pBJvprwSNDNUFkqBLB2W7UQPjNlMB9wVRAqiZ+wA2amkDRUJDA9JhnQEDLyj7NzojA3IiHQARRvb8X3+K+WlfTPsrJ7j6SaTC/OQP2PxyZbMDMbR5A
lpc_rms=-34.19
offset=1008
pitch_keycenter=c5
sample=SoloCello_sul_tasto_FF_C5.opus
</region>

<region>
end=292249
hikey=c4
hivel=127
lokey=b3
loop_end=267675
loop_mode=loop_continuous
loop_start=98396
loop_xfade=17919
lovel=1
lpc=dFYqQoqdvsI6TJtC8Ksjws4fCEItf+rBr0mLQVBPOsFqxfVAfbjiwORHQ0FQblDBkdC2QNTREUERb3fB/h0tQbihAMHWcdxAa6qSwDr8TkCgEXbAvdS9QChnA8HzB5pA
lpc_rms=-23.65
offset=1144
pitch_keycenter=c4
sample=SoloCello_sul_tasto_FF_C4.opus
</region>

<region>
end=303073
hikey=c3
hivel=127
lokey=b2
loop_end=283438
loop_mode=loop_continuous
loop_start=102040
loop_xfade=18583
lovel=1
lpc=qhpYQlL768KAm45Cdrs7wXUfu0Gf5eLB4HJOQSCK38Cw8QBBtQUxwWEMckFlbofBYu3MQPvEQkEerTnB9RKkv6Klcj/O//VAJ8WswJlpgL+EjRTAZMq4QC3n3sCXXoZA
lpc_rms=-25.43
offset=2821
pitch_keycenter=c3
sample=SoloCello_sul_tasto_FF_C3.opus
</region>

<region>
end=301802
hivel=127
key=c2
loop_end=282842
loop_mode=loop_continuous
loop_start=101612
loop_xfade=18505
lovel=1
lpc=F+xuQnA36cKOaTpCn70EwT5qdkIzlEbCgrQvQVYFlsHZFZlB8asGwZVux0DFndzAZxECQVh+qz8qJYe9bjsfwTTzvT/5jKtAR1YYQOUfNsBTCEvAelhrPx0j27+WXzpA
lpc_rms=-23.53
offset=16871
sample=SoloCello_sul_tasto_FF_C2.opus
</region>

<region>
end=344500
hikey=a#4
hivel=127
lokey=a4
loop_end=288774
loop_mode=loop_continuous
loop_start=115988
loop_xfade=21123
lovel=1
lpc=qyv0QEp9icGJn4RBF3c2wTYmE0EeveHAf5xkQIe0tr/9+8o/HT4dwPD5YEDwSnfAoWU6QM33ZD7fNVjAwZFpQC5NLcBOxU9AwZ7gv867wL+5BMc/Z+w5vgGVojxBjCk9
lpc_rms=-38.53
offset=5075
pitch_keycenter=a#4
sample=SoloCello_sul_tasto_FF_A#4.opus
</region>

<region>
end=337468
hikey=a#3
hivel=127
lokey=a3
loop_end=292076
loop_mode=loop_continuous
loop_start=113620
loop_xfade=20692
lovel=1
lpc=VGzSQRIabsKKDVBC1Bf1wVFNzUEfxrDBz1xRQdpCC8HiqPRA/ogLwZNgOEHdElDBwxLbQF20q0DuxjLBcV7rQFPPK8BjGl9AoeC4wArum0DyGijA30ANQGVCPMDOpfw/
lpc_rms=-26.98
offset=649
pitch_keycenter=a#3
sample=SoloCello_sul_tasto_FF_A#3.opus
</region>

<region>
end=298322
hikey=a#2
hivel=127
lokey=a2
loop_end=282459
loop_mode=loop_continuous
loop_start=100440
loop_xfade=18292
lovel=1
lpc=WuWFQha+DsOeMptCQjb6wPIkEELm7CfCZ7GDQW8+K8HOmBNBD0kPwY+OfUGwaJfBVVjIQHsEU0H62OLA0Z4HwQHbaz+6vihBPkOGwCTjdMBZzSnA3wjtQDtDh8AYWr0/
lpc_rms=-22.91
offset=2237
pitch_keycenter=a#2
sample=SoloCello_sul_tasto_FF_A#2.opus
</region>
</group>